<mxfile host="65bd71144e">
    <diagram id="NCd8ddXup4r9nLZ1PZ9U" name="ページ1">
        <mxGraphModel dx="1181" dy="403" grid="1" gridSize="10" guides="1" tooltips="1" connect="1" arrows="1" fold="1" page="1" pageScale="1" pageWidth="827" pageHeight="1169" math="0" shadow="0">
            <root>
                <mxCell id="0"/>
                <mxCell id="1" parent="0" visible="0"/>
                <mxCell id="2" value="AWS" style="locked=1;" parent="0"/>
                <mxCell id="17" value="AWS Cloud" style="points=[[0,0],[0.25,0],[0.5,0],[0.75,0],[1,0],[1,0.25],[1,0.5],[1,0.75],[1,1],[0.75,1],[0.5,1],[0.25,1],[0,1],[0,0.75],[0,0.5],[0,0.25]];outlineConnect=0;gradientColor=none;html=1;whiteSpace=wrap;fontSize=12;fontStyle=0;container=1;pointerEvents=0;collapsible=0;recursiveResize=0;shape=mxgraph.aws4.group;grIcon=mxgraph.aws4.group_aws_cloud_alt;strokeColor=#232F3E;fillColor=none;verticalAlign=top;align=left;spacingLeft=30;fontColor=#232F3E;dashed=0;" parent="2" vertex="1">
                    <mxGeometry x="-120" y="120" width="1080" height="1090" as="geometry"/>
                </mxCell>
                <mxCell id="22" value="ap-northeast-1(Tokyo)" style="points=[[0,0],[0.25,0],[0.5,0],[0.75,0],[1,0],[1,0.25],[1,0.5],[1,0.75],[1,1],[0.75,1],[0.5,1],[0.25,1],[0,1],[0,0.75],[0,0.5],[0,0.25]];outlineConnect=0;gradientColor=none;html=1;whiteSpace=wrap;fontSize=12;fontStyle=0;container=1;pointerEvents=0;collapsible=0;recursiveResize=0;shape=mxgraph.aws4.group;grIcon=mxgraph.aws4.group_region;strokeColor=#00A4A6;fillColor=none;verticalAlign=top;align=left;spacingLeft=30;fontColor=#147EBA;dashed=1;" vertex="1" parent="17">
                    <mxGeometry x="60" y="70" width="970" height="970" as="geometry"/>
                </mxCell>
                <mxCell id="3" value="VPC" style="" parent="0"/>
                <mxCell id="24" value="&lt;font style=&quot;color: light-dark(rgb(140, 79, 255), rgb(237, 237, 237));&quot;&gt;aws-study-062602-vpc&lt;/font&gt;" style="points=[[0,0],[0.25,0],[0.5,0],[0.75,0],[1,0],[1,0.25],[1,0.5],[1,0.75],[1,1],[0.75,1],[0.5,1],[0.25,1],[0,1],[0,0.75],[0,0.5],[0,0.25]];outlineConnect=0;gradientColor=none;html=1;whiteSpace=wrap;fontSize=12;fontStyle=0;container=1;pointerEvents=0;collapsible=0;recursiveResize=0;shape=mxgraph.aws4.group;grIcon=mxgraph.aws4.group_vpc2;strokeColor=#8C4FFF;fillColor=none;verticalAlign=top;align=left;spacingLeft=30;fontColor=#AAB7B8;dashed=0;" vertex="1" parent="3">
                    <mxGeometry y="280" width="870" height="810" as="geometry"/>
                </mxCell>
                <mxCell id="5" value="AZ" style="locked=1;" parent="0"/>
                <mxCell id="VETZi6v3xMVQpALRaujU-21" value="ap-northeast-1a" style="fillColor=none;strokeColor=#147EBA;dashed=1;verticalAlign=top;fontStyle=0;fontColor=#147EBA;whiteSpace=wrap;html=1;" parent="5" vertex="1">
                    <mxGeometry x="20" y="320" width="260" height="740" as="geometry"/>
                </mxCell>
                <mxCell id="VETZi6v3xMVQpALRaujU-22" value="ap-northeast-1c" style="fillColor=none;strokeColor=#147EBA;dashed=1;verticalAlign=top;fontStyle=0;fontColor=#147EBA;whiteSpace=wrap;html=1;" parent="5" vertex="1">
                    <mxGeometry x="320" y="320" width="260" height="740" as="geometry"/>
                </mxCell>
                <mxCell id="bQz1SvjXmM2LHqybezeh-21" value="ap-northeaset-1d" style="fillColor=none;strokeColor=#147EBA;dashed=1;verticalAlign=top;fontStyle=0;fontColor=#147EBA;whiteSpace=wrap;html=1;" parent="5" vertex="1">
                    <mxGeometry x="600" y="520" width="250" height="320" as="geometry"/>
                </mxCell>
                <mxCell id="4" value="サブネット" style="locked=1;" parent="0"/>
                <mxCell id="6" value="リソースグループ" style="" parent="0"/>
                <mxCell id="vBAmFfuKdxLEoq4p0X1e-22" value="&lt;span style=&quot;color: rgb(36, 136, 20);&quot;&gt;aws-study-062602-subnet-public1-ap-1a&lt;/span&gt;" style="points=[[0,0],[0.25,0],[0.5,0],[0.75,0],[1,0],[1,0.25],[1,0.5],[1,0.75],[1,1],[0.75,1],[0.5,1],[0.25,1],[0,1],[0,0.75],[0,0.5],[0,0.25]];outlineConnect=0;gradientColor=none;html=1;whiteSpace=wrap;fontSize=12;fontStyle=0;container=1;pointerEvents=0;collapsible=0;recursiveResize=0;shape=mxgraph.aws4.group;grIcon=mxgraph.aws4.group_security_group;grStroke=0;strokeColor=#7AA116;fillColor=#F2F6E8;verticalAlign=top;align=left;spacingLeft=30;fontColor=#248814;dashed=0;" parent="6" vertex="1">
                    <mxGeometry x="40" y="360" width="220" height="200" as="geometry"/>
                </mxCell>
                <mxCell id="vBAmFfuKdxLEoq4p0X1e-21" value="aws-study-062602-subnet-private1-ap-1a" style="points=[[0,0],[0.25,0],[0.5,0],[0.75,0],[1,0],[1,0.25],[1,0.5],[1,0.75],[1,1],[0.75,1],[0.5,1],[0.25,1],[0,1],[0,0.75],[0,0.5],[0,0.25]];outlineConnect=0;gradientColor=none;html=1;whiteSpace=wrap;fontSize=12;fontStyle=0;container=1;pointerEvents=0;collapsible=0;recursiveResize=0;shape=mxgraph.aws4.group;grIcon=mxgraph.aws4.group_security_group;grStroke=0;strokeColor=#00A4A6;fillColor=#E6F6F7;verticalAlign=top;align=left;spacingLeft=30;fontColor=#147EBA;dashed=0;" parent="6" vertex="1">
                    <mxGeometry x="41" y="600" width="219" height="198" as="geometry"/>
                </mxCell>
                <mxCell id="vBAmFfuKdxLEoq4p0X1e-27" value="aws-study-062602-subnet-public2-ap-1c" style="points=[[0,0],[0.25,0],[0.5,0],[0.75,0],[1,0],[1,0.25],[1,0.5],[1,0.75],[1,1],[0.75,1],[0.5,1],[0.25,1],[0,1],[0,0.75],[0,0.5],[0,0.25]];outlineConnect=0;gradientColor=none;html=1;whiteSpace=wrap;fontSize=12;fontStyle=0;container=1;pointerEvents=0;collapsible=0;recursiveResize=0;shape=mxgraph.aws4.group;grIcon=mxgraph.aws4.group_security_group;grStroke=0;strokeColor=#7AA116;fillColor=#F2F6E8;verticalAlign=top;align=left;spacingLeft=30;fontColor=#248814;dashed=0;" parent="6" vertex="1">
                    <mxGeometry x="340" y="360" width="220" height="200" as="geometry"/>
                </mxCell>
                <mxCell id="SfBKDm_U5bf0pvxqxar4-22" value="" style="rounded=1;whiteSpace=wrap;html=1;dashed=1;strokeWidth=2;strokeColor=default;fillColor=none;" parent="vBAmFfuKdxLEoq4p0X1e-27" vertex="1">
                    <mxGeometry x="-120" y="40" width="162" height="140" as="geometry"/>
                </mxCell>
                <mxCell id="5a-HFbx_jpb5p8lvmORl-21" value="Application Load&lt;div&gt;Balancer&lt;/div&gt;" style="sketch=0;outlineConnect=0;fontColor=#232F3E;gradientColor=none;fillColor=#8C4FFF;strokeColor=none;dashed=0;verticalLabelPosition=bottom;verticalAlign=top;align=center;html=1;fontSize=12;fontStyle=0;aspect=fixed;pointerEvents=1;shape=mxgraph.aws4.application_load_balancer;" parent="vBAmFfuKdxLEoq4p0X1e-27" vertex="1">
                    <mxGeometry x="-80" y="60" width="78" height="78" as="geometry"/>
                </mxCell>
                <mxCell id="vBAmFfuKdxLEoq4p0X1e-28" value="RDS-Pvt-subnet-13" style="points=[[0,0],[0.25,0],[0.5,0],[0.75,0],[1,0],[1,0.25],[1,0.5],[1,0.75],[1,1],[0.75,1],[0.5,1],[0.25,1],[0,1],[0,0.75],[0,0.5],[0,0.25]];outlineConnect=0;gradientColor=none;html=1;whiteSpace=wrap;fontSize=12;fontStyle=0;container=1;pointerEvents=0;collapsible=0;recursiveResize=0;shape=mxgraph.aws4.group;grIcon=mxgraph.aws4.group_security_group;grStroke=0;strokeColor=#00A4A6;fillColor=#E6F6F7;verticalAlign=top;align=left;spacingLeft=30;fontColor=#147EBA;dashed=0;" parent="6" vertex="1">
                    <mxGeometry x="41" y="840" width="219" height="198" as="geometry"/>
                </mxCell>
                <mxCell id="vBAmFfuKdxLEoq4p0X1e-29" value="&lt;span style=&quot;color: rgb(20, 126, 186);&quot;&gt;aws-study-062602-subnet-private1-ap-1c&lt;/span&gt;" style="points=[[0,0],[0.25,0],[0.5,0],[0.75,0],[1,0],[1,0.25],[1,0.5],[1,0.75],[1,1],[0.75,1],[0.5,1],[0.25,1],[0,1],[0,0.75],[0,0.5],[0,0.25]];outlineConnect=0;gradientColor=none;html=1;whiteSpace=wrap;fontSize=12;fontStyle=0;container=1;pointerEvents=0;collapsible=0;recursiveResize=0;shape=mxgraph.aws4.group;grIcon=mxgraph.aws4.group_security_group;grStroke=0;strokeColor=#00A4A6;fillColor=#E6F6F7;verticalAlign=top;align=left;spacingLeft=30;fontColor=#147EBA;dashed=0;" parent="6" vertex="1">
                    <mxGeometry x="340" y="600" width="220" height="198" as="geometry"/>
                </mxCell>
                <mxCell id="vBAmFfuKdxLEoq4p0X1e-30" value="RDS-Pvt-subnet-14" style="points=[[0,0],[0.25,0],[0.5,0],[0.75,0],[1,0],[1,0.25],[1,0.5],[1,0.75],[1,1],[0.75,1],[0.5,1],[0.25,1],[0,1],[0,0.75],[0,0.5],[0,0.25]];outlineConnect=0;gradientColor=none;html=1;whiteSpace=wrap;fontSize=12;fontStyle=0;container=1;pointerEvents=0;collapsible=0;recursiveResize=0;shape=mxgraph.aws4.group;grIcon=mxgraph.aws4.group_security_group;grStroke=0;strokeColor=#00A4A6;fillColor=#E6F6F7;verticalAlign=top;align=left;spacingLeft=30;fontColor=#147EBA;dashed=0;" parent="6" vertex="1">
                    <mxGeometry x="340" y="840" width="220" height="198" as="geometry"/>
                </mxCell>
                <mxCell id="5a-HFbx_jpb5p8lvmORl-26" style="edgeStyle=none;html=1;" parent="6" target="5a-HFbx_jpb5p8lvmORl-21" edge="1">
                    <mxGeometry relative="1" as="geometry">
                        <mxPoint x="178" y="459.7562499999999" as="sourcePoint"/>
                    </mxGeometry>
                </mxCell>
                <mxCell id="5a-HFbx_jpb5p8lvmORl-27" style="edgeStyle=none;html=1;" parent="6" source="5a-HFbx_jpb5p8lvmORl-21" target="vBAmFfuKdxLEoq4p0X1e-22" edge="1">
                    <mxGeometry relative="1" as="geometry"/>
                </mxCell>
                <mxCell id="YUyJjPFo-smnwF4wSYnh-22" value="RDS-Pvt-subnet-8" style="points=[[0,0],[0.25,0],[0.5,0],[0.75,0],[1,0],[1,0.25],[1,0.5],[1,0.75],[1,1],[0.75,1],[0.5,1],[0.25,1],[0,1],[0,0.75],[0,0.5],[0,0.25]];outlineConnect=0;gradientColor=none;html=1;whiteSpace=wrap;fontSize=12;fontStyle=0;container=1;pointerEvents=0;collapsible=0;recursiveResize=0;shape=mxgraph.aws4.group;grIcon=mxgraph.aws4.group_security_group;grStroke=0;strokeColor=#00A4A6;fillColor=#E6F6F7;verticalAlign=top;align=left;spacingLeft=30;fontColor=#147EBA;dashed=0;" parent="6" vertex="1">
                    <mxGeometry x="620" y="600" width="220" height="198" as="geometry"/>
                </mxCell>
                <mxCell id="7" value="リソース" style="" parent="0"/>
                <mxCell id="5a-HFbx_jpb5p8lvmORl-25" value="" style="edgeStyle=none;html=1;" parent="7" source="13" edge="1">
                    <mxGeometry relative="1" as="geometry">
                        <mxPoint x="299" y="420.0008863434921" as="targetPoint"/>
                    </mxGeometry>
                </mxCell>
                <mxCell id="xZhPo9JyoqTcJr8I7_4c-26" style="edgeStyle=none;html=1;" parent="7" source="13" edge="1">
                    <mxGeometry relative="1" as="geometry">
                        <mxPoint x="299" y="90" as="targetPoint"/>
                    </mxGeometry>
                </mxCell>
                <mxCell id="13" value="&lt;div style=&quot;text-align: start;&quot;&gt;&lt;font face=&quot;Amazon Ember, Helvetica Neue, Roboto, Arial, sans-serif&quot; color=&quot;#f0fbff&quot;&gt;&lt;span style=&quot;font-size: 14px; caret-color: rgb(240, 251, 255);&quot;&gt;Internet gateway&lt;/span&gt;&lt;/font&gt;&lt;/div&gt;" style="sketch=0;outlineConnect=0;fontColor=#232F3E;gradientColor=none;fillColor=#8C4FFF;strokeColor=none;dashed=0;verticalLabelPosition=bottom;verticalAlign=top;align=center;html=1;fontSize=12;fontStyle=0;aspect=fixed;pointerEvents=1;shape=mxgraph.aws4.internet_gateway;" parent="7" vertex="1">
                    <mxGeometry x="260" y="240" width="78" height="78" as="geometry"/>
                </mxCell>
                <mxCell id="5a-HFbx_jpb5p8lvmORl-24" style="edgeStyle=none;html=1;strokeWidth=1;" parent="7" target="13" edge="1">
                    <mxGeometry relative="1" as="geometry">
                        <mxPoint x="299" y="420.0008863434921" as="sourcePoint"/>
                    </mxGeometry>
                </mxCell>
                <mxCell id="5a-HFbx_jpb5p8lvmORl-28" value="" style="edgeStyle=none;html=1;" parent="7" source="5a-HFbx_jpb5p8lvmORl-21" edge="1">
                    <mxGeometry relative="1" as="geometry">
                        <mxPoint x="178" y="459.75625000000014" as="targetPoint"/>
                    </mxGeometry>
                </mxCell>
                <mxCell id="SfBKDm_U5bf0pvxqxar4-26" style="edgeStyle=none;html=1;" parent="7" source="21" target="SfBKDm_U5bf0pvxqxar4-24" edge="1">
                    <mxGeometry relative="1" as="geometry"/>
                </mxCell>
                <mxCell id="21" value="Amazon RDS" style="sketch=0;points=[[0,0,0],[0.25,0,0],[0.5,0,0],[0.75,0,0],[1,0,0],[0,1,0],[0.25,1,0],[0.5,1,0],[0.75,1,0],[1,1,0],[0,0.25,0],[0,0.5,0],[0,0.75,0],[1,0.25,0],[1,0.5,0],[1,0.75,0]];outlineConnect=0;fontColor=#232F3E;fillColor=#C925D1;strokeColor=#ffffff;dashed=0;verticalLabelPosition=bottom;verticalAlign=top;align=center;html=1;fontSize=12;fontStyle=0;aspect=fixed;shape=mxgraph.aws4.resourceIcon;resIcon=mxgraph.aws4.rds;" parent="7" vertex="1">
                    <mxGeometry x="100" y="900" width="78" height="78" as="geometry"/>
                </mxCell>
                <mxCell id="SfBKDm_U5bf0pvxqxar4-25" style="edgeStyle=none;html=1;exitX=0.5;exitY=1;exitDx=0;exitDy=0;exitPerimeter=0;" parent="7" source="SfBKDm_U5bf0pvxqxar4-24" target="21" edge="1">
                    <mxGeometry relative="1" as="geometry"/>
                </mxCell>
                <mxCell id="SfBKDm_U5bf0pvxqxar4-24" value="Amazon EC2" style="sketch=0;points=[[0,0,0],[0.25,0,0],[0.5,0,0],[0.75,0,0],[1,0,0],[0,1,0],[0.25,1,0],[0.5,1,0],[0.75,1,0],[1,1,0],[0,0.25,0],[0,0.5,0],[0,0.75,0],[1,0.25,0],[1,0.5,0],[1,0.75,0]];outlineConnect=0;fontColor=#232F3E;fillColor=#ED7100;strokeColor=#ffffff;dashed=0;verticalLabelPosition=bottom;verticalAlign=top;align=center;html=1;fontSize=12;fontStyle=0;aspect=fixed;shape=mxgraph.aws4.resourceIcon;resIcon=mxgraph.aws4.ec2;" parent="7" vertex="1">
                    <mxGeometry x="100" y="421" width="78" height="78" as="geometry"/>
                </mxCell>
                <mxCell id="8" value="AWSの外" style="" parent="0"/>
                <mxCell id="xZhPo9JyoqTcJr8I7_4c-25" style="edgeStyle=none;html=1;" parent="8" source="xZhPo9JyoqTcJr8I7_4c-21" edge="1">
                    <mxGeometry relative="1" as="geometry">
                        <mxPoint x="300" y="240" as="targetPoint"/>
                    </mxGeometry>
                </mxCell>
                <mxCell id="xZhPo9JyoqTcJr8I7_4c-27" style="edgeStyle=none;html=1;" parent="8" source="xZhPo9JyoqTcJr8I7_4c-21" target="xZhPo9JyoqTcJr8I7_4c-22" edge="1">
                    <mxGeometry relative="1" as="geometry"/>
                </mxCell>
                <mxCell id="xZhPo9JyoqTcJr8I7_4c-21" value="Internet" style="sketch=0;outlineConnect=0;fontColor=#232F3E;gradientColor=none;strokeColor=#232F3E;fillColor=#ffffff;dashed=0;verticalLabelPosition=bottom;verticalAlign=top;align=center;html=1;fontSize=12;fontStyle=0;aspect=fixed;shape=mxgraph.aws4.resourceIcon;resIcon=mxgraph.aws4.internet;" parent="8" vertex="1">
                    <mxGeometry x="260" y="10" width="80" height="80" as="geometry"/>
                </mxCell>
                <mxCell id="xZhPo9JyoqTcJr8I7_4c-29" style="edgeStyle=none;html=1;" parent="8" source="xZhPo9JyoqTcJr8I7_4c-22" target="xZhPo9JyoqTcJr8I7_4c-21" edge="1">
                    <mxGeometry relative="1" as="geometry"/>
                </mxCell>
                <mxCell id="xZhPo9JyoqTcJr8I7_4c-22" value="Users" style="sketch=0;outlineConnect=0;fontColor=#232F3E;gradientColor=none;fillColor=#232F3D;strokeColor=default;dashed=0;verticalLabelPosition=bottom;verticalAlign=top;align=center;html=1;fontSize=12;fontStyle=0;aspect=fixed;pointerEvents=1;shape=mxgraph.aws4.users;" parent="8" vertex="1">
                    <mxGeometry x="510" y="12" width="78" height="78" as="geometry"/>
                </mxCell>
                <mxCell id="9" value="フロー" style="locked=1;" parent="0"/>
            </root>
        </mxGraphModel>
    </diagram>
    <diagram id="cAZoFMI142glVhR8YMDO" name="ページ2">
        <mxGraphModel dx="618" dy="647" grid="1" gridSize="10" guides="1" tooltips="1" connect="1" arrows="1" fold="1" page="1" pageScale="1" pageWidth="827" pageHeight="1169" math="0" shadow="0">
            <root>
                <mxCell id="0"/>
                <mxCell id="1" parent="0"/>
                <mxCell id="XQ4cG9X9tebBTMQ-gC2s-1" value="RDS" style="sketch=0;points=[[0,0,0],[0.25,0,0],[0.5,0,0],[0.75,0,0],[1,0,0],[0,1,0],[0.25,1,0],[0.5,1,0],[0.75,1,0],[1,1,0],[0,0.25,0],[0,0.5,0],[0,0.75,0],[1,0.25,0],[1,0.5,0],[1,0.75,0]];outlineConnect=0;fontColor=#232F3E;fillColor=#C925D1;strokeColor=#ffffff;dashed=0;verticalLabelPosition=bottom;verticalAlign=top;align=center;html=1;fontSize=12;fontStyle=0;aspect=fixed;shape=mxgraph.aws4.resourceIcon;resIcon=mxgraph.aws4.rds;" vertex="1" parent="1">
                    <mxGeometry x="210" y="60" width="78" height="78" as="geometry"/>
                </mxCell>
                <mxCell id="XQ4cG9X9tebBTMQ-gC2s-2" value="EC2" style="sketch=0;points=[[0,0,0],[0.25,0,0],[0.5,0,0],[0.75,0,0],[1,0,0],[0,1,0],[0.25,1,0],[0.5,1,0],[0.75,1,0],[1,1,0],[0,0.25,0],[0,0.5,0],[0,0.75,0],[1,0.25,0],[1,0.5,0],[1,0.75,0]];outlineConnect=0;fontColor=#232F3E;fillColor=#ED7100;strokeColor=#ffffff;dashed=0;verticalLabelPosition=bottom;verticalAlign=top;align=center;html=1;fontSize=12;fontStyle=0;aspect=fixed;shape=mxgraph.aws4.resourceIcon;resIcon=mxgraph.aws4.ec2;" vertex="1" parent="1">
                    <mxGeometry x="50" y="60" width="78" height="78" as="geometry"/>
                </mxCell>
                <mxCell id="XQ4cG9X9tebBTMQ-gC2s-3" value="" style="sketch=0;outlineConnect=0;fontColor=#232F3E;gradientColor=none;fillColor=#8C4FFF;strokeColor=none;dashed=0;verticalLabelPosition=bottom;verticalAlign=top;align=center;html=1;fontSize=12;fontStyle=0;aspect=fixed;pointerEvents=1;shape=mxgraph.aws4.application_load_balancer;" vertex="1" parent="1">
                    <mxGeometry x="350" y="30" width="78" height="78" as="geometry"/>
                </mxCell>
                <mxCell id="XQ4cG9X9tebBTMQ-gC2s-4" value="Availability Zone" style="fillColor=none;strokeColor=#147EBA;dashed=1;verticalAlign=top;fontStyle=0;fontColor=#147EBA;whiteSpace=wrap;html=1;" vertex="1" parent="1">
                    <mxGeometry x="70" y="210" width="130" height="130" as="geometry"/>
                </mxCell>
                <mxCell id="XQ4cG9X9tebBTMQ-gC2s-5" value="Private subnet" style="points=[[0,0],[0.25,0],[0.5,0],[0.75,0],[1,0],[1,0.25],[1,0.5],[1,0.75],[1,1],[0.75,1],[0.5,1],[0.25,1],[0,1],[0,0.75],[0,0.5],[0,0.25]];outlineConnect=0;gradientColor=none;html=1;whiteSpace=wrap;fontSize=12;fontStyle=0;container=1;pointerEvents=0;collapsible=0;recursiveResize=0;shape=mxgraph.aws4.group;grIcon=mxgraph.aws4.group_security_group;grStroke=0;strokeColor=#00A4A6;fillColor=#E6F6F7;verticalAlign=top;align=left;spacingLeft=30;fontColor=#147EBA;dashed=0;" vertex="1" parent="1">
                    <mxGeometry x="240" y="210" width="130" height="130" as="geometry"/>
                </mxCell>
                <mxCell id="XQ4cG9X9tebBTMQ-gC2s-6" value="Public subnet" style="points=[[0,0],[0.25,0],[0.5,0],[0.75,0],[1,0],[1,0.25],[1,0.5],[1,0.75],[1,1],[0.75,1],[0.5,1],[0.25,1],[0,1],[0,0.75],[0,0.5],[0,0.25]];outlineConnect=0;gradientColor=none;html=1;whiteSpace=wrap;fontSize=12;fontStyle=0;container=1;pointerEvents=0;collapsible=0;recursiveResize=0;shape=mxgraph.aws4.group;grIcon=mxgraph.aws4.group_security_group;grStroke=0;strokeColor=#7AA116;fillColor=#F2F6E8;verticalAlign=top;align=left;spacingLeft=30;fontColor=#248814;dashed=0;" vertex="1" parent="1">
                    <mxGeometry x="390" y="210" width="130" height="130" as="geometry"/>
                </mxCell>
                <mxCell id="XQ4cG9X9tebBTMQ-gC2s-7" value="VPC" style="sketch=0;outlineConnect=0;gradientColor=none;html=1;whiteSpace=wrap;fontSize=12;fontStyle=0;shape=mxgraph.aws4.group;grIcon=mxgraph.aws4.group_vpc;strokeColor=#B6BABF;fillColor=none;verticalAlign=top;align=left;spacingLeft=30;fontColor=#B6BABF;dashed=0;" vertex="1" parent="1">
                    <mxGeometry x="70" y="400" width="130" height="130" as="geometry"/>
                </mxCell>
                <mxCell id="XQ4cG9X9tebBTMQ-gC2s-8" value="igw" style="sketch=0;outlineConnect=0;fontColor=#232F3E;gradientColor=none;fillColor=#8C4FFF;strokeColor=none;dashed=0;verticalLabelPosition=bottom;verticalAlign=top;align=center;html=1;fontSize=12;fontStyle=0;aspect=fixed;pointerEvents=1;shape=mxgraph.aws4.internet_gateway;" vertex="1" parent="1">
                    <mxGeometry x="450" y="80" width="78" height="78" as="geometry"/>
                </mxCell>
                <mxCell id="XQ4cG9X9tebBTMQ-gC2s-9" value="VPC" style="sketch=0;outlineConnect=0;gradientColor=none;html=1;whiteSpace=wrap;fontSize=12;fontStyle=0;shape=mxgraph.aws4.group;grIcon=mxgraph.aws4.group_vpc;strokeColor=#879196;fillColor=none;verticalAlign=top;align=left;spacingLeft=30;fontColor=#879196;dashed=0;" vertex="1" parent="1">
                    <mxGeometry x="260" y="400" width="130" height="130" as="geometry"/>
                </mxCell>
                <mxCell id="XQ4cG9X9tebBTMQ-gC2s-10" value="" style="sketch=0;points=[[0,0,0],[0.25,0,0],[0.5,0,0],[0.75,0,0],[1,0,0],[0,1,0],[0.25,1,0],[0.5,1,0],[0.75,1,0],[1,1,0],[0,0.25,0],[0,0.5,0],[0,0.75,0],[1,0.25,0],[1,0.5,0],[1,0.75,0]];outlineConnect=0;fontColor=#232F3E;fillColor=#7AA116;strokeColor=#ffffff;dashed=0;verticalLabelPosition=bottom;verticalAlign=top;align=center;html=1;fontSize=12;fontStyle=0;aspect=fixed;shape=mxgraph.aws4.resourceIcon;resIcon=mxgraph.aws4.s3;" vertex="1" parent="1">
                    <mxGeometry x="528" y="2" width="78" height="78" as="geometry"/>
                </mxCell>
                <mxCell id="XQ4cG9X9tebBTMQ-gC2s-11" value="Internet" style="sketch=0;outlineConnect=0;fontColor=#232F3E;gradientColor=none;strokeColor=#232F3E;fillColor=#ffffff;dashed=0;verticalLabelPosition=bottom;verticalAlign=top;align=center;html=1;fontSize=12;fontStyle=0;aspect=fixed;shape=mxgraph.aws4.resourceIcon;resIcon=mxgraph.aws4.internet;" vertex="1" parent="1">
                    <mxGeometry x="425" y="370" width="60" height="60" as="geometry"/>
                </mxCell>
                <mxCell id="XQ4cG9X9tebBTMQ-gC2s-12" value="" style="sketch=0;outlineConnect=0;fontColor=#232F3E;gradientColor=none;fillColor=#232F3D;strokeColor=default;dashed=0;verticalLabelPosition=bottom;verticalAlign=top;align=center;html=1;fontSize=12;fontStyle=0;aspect=fixed;pointerEvents=1;shape=mxgraph.aws4.users;" vertex="1" parent="1">
                    <mxGeometry x="416" y="460" width="78" height="78" as="geometry"/>
                </mxCell>
            </root>
        </mxGraphModel>
    </diagram>
</mxfile>